<?xml version="1.0" encoding="UTF-8"?>
<svg width="246px" height="74px" viewBox="0 0 246 74" version="1.1" xmlns="http://www.w3.org/2000/svg" xmlns:xlink="http://www.w3.org/1999/xlink">
    <!-- Generator: Sketch 47.1 (45422) - http://www.bohemiancoding.com/sketch -->
    <title>amazon</title>
    <desc>Created with Sketch.</desc>
    <defs></defs>
    <g id="Page-1" stroke="none" stroke-width="1" fill="none" fill-rule="evenodd">
        <g id="My-Design" transform="translate(-150.000000, -2513.000000)" fill="#CECECE">
            <g id="testimonial.2" transform="translate(0.000000, 2121.000000)">
                <g id="logos" transform="translate(150.000000, 384.000000)">
                    <g id="amazon" transform="translate(0.000000, 8.000000)">
                        <path d="M22.3765486,24.2630303 L22.3765486,22.6158678 C16.8858859,22.6158678 11.0888737,23.7900826 11.0888737,30.2686501 C11.0888737,33.5507438 12.7876468,35.7727824 15.7004112,35.7727824 C17.8391543,35.7727824 19.7497647,34.4599449 20.9556085,32.3235262 C22.4515065,29.6937741 22.3765486,27.2230303 22.3765486,24.2630303 L22.3765486,24.2630303 Z M30.034471,42.7854545 C29.5325793,43.2339394 28.8062214,43.2665565 28.2399637,42.9689256 C25.7199133,40.8732782 25.2713883,39.898843 23.8830385,37.9010468 C19.7171744,42.1575758 16.7677458,43.4296419 11.3658918,43.4296419 C4.97817915,43.4296419 -7.10542736e-15,39.4829752 -7.10542736e-15,31.5855647 C-7.10542736e-15,25.4168595 3.34458681,21.2174105 8.09870716,19.1625344 C12.2213891,17.3482094 17.9776633,17.0261157 22.3765486,16.5246281 L22.3765486,15.5420386 C22.3765486,13.7317906 22.5150577,11.5953719 21.4583149,10.0338292 C20.5278598,8.6353719 18.7557584,8.05641873 17.1954944,8.05641873 C14.303099,8.05641873 11.7162383,9.544573 11.0888737,12.6228099 C10.9585122,13.3077686 10.4574353,13.9804959 9.77303746,14.0131129 L2.40353985,13.2221488 C1.7843228,13.0835262 1.09992502,12.5779614 1.27102446,11.627989 C2.96979754,2.69090909 11.0359143,0 18.2546815,0 C21.9496148,0 26.7770635,0.982589532 29.6926795,3.78358127 C33.3876128,7.23283747 33.0356368,11.84 33.0356368,16.854876 L33.0356368,28.6989532 C33.0356368,32.258292 34.5095363,33.8198347 35.8978861,35.7442424 C36.3887786,36.425124 36.4955121,37.2487052 35.8775171,37.7624242 C34.3286598,39.054876 31.5731439,41.4603857 30.0560621,42.8058402 L30.0356932,42.8058402 L30.034471,42.7854545 Z M121.928318,24.2630303 L121.928318,22.6158678 C116.424619,22.6158678 110.627607,23.7900826 110.627607,30.2686501 C110.627607,33.5507438 112.334527,35.7727824 115.251365,35.7727824 C117.377887,35.7727824 119.300719,34.4599449 120.506563,32.3235262 C122.001646,29.6937741 121.928318,27.2230303 121.928318,24.2630303 L121.928318,24.2630303 Z M129.582981,42.7854545 C129.081904,43.2339394 128.356768,43.2665565 127.790511,42.9689256 C125.268831,40.8732782 124.808492,39.898843 123.431548,37.9010468 C119.268129,42.1575758 116.310552,43.4296419 110.916846,43.4296419 C104.516912,43.4296419 99.5509542,39.4829752 99.5509542,31.5855647 C99.5509542,25.4168595 102.88332,21.2174105 107.645588,19.1625344 C111.768269,17.3482094 117.524544,17.0261157 121.928318,16.5246281 L121.928318,15.5420386 C121.928318,13.7317906 122.066827,11.5953719 120.995418,10.0338292 C120.078814,8.6353719 118.306713,8.05641873 116.734227,8.05641873 C113.841832,8.05641873 111.267193,9.544573 110.635754,12.6228099 C110.509466,13.3077686 110.008389,13.9804959 109.31177,14.0131129 L101.954494,13.2221488 C101.335277,13.0835262 100.638658,12.5779614 100.821979,11.627989 C102.50853,2.69090909 110.582795,0 117.805636,0 C121.500569,0 126.328018,0.982589532 129.240782,3.78358127 C132.939789,7.23283747 132.585369,11.84 132.585369,16.854876 L132.585369,28.6989532 C132.585369,32.258292 134.060083,33.8198347 135.449248,35.7442424 C135.929956,36.425124 136.035874,37.2487052 135.40851,37.7624242 C133.860467,39.054876 131.102507,41.4603857 129.587055,42.8058402 L129.582981,42.7854545 Z M223.10105,42.8914601 L215.540084,42.8914601 C214.778284,42.8384573 214.171289,42.2309642 214.171289,41.4807713 L214.171289,2.46666667 C214.236469,1.75316804 214.867908,1.19460055 215.637855,1.19460055 L222.673302,1.19460055 C223.33733,1.2353719 223.883219,1.67570248 224.029876,2.28727273 L224.029876,8.25212121 L224.168385,8.25212121 C226.294907,2.91515152 229.272852,0.371019284 234.519901,0.371019284 C237.925595,0.371019284 241.245739,1.60231405 243.384482,4.97002755 C245.368421,8.08903581 245.368421,13.3363085 245.368421,17.1117355 L245.368421,41.6642424 C245.282871,42.3492011 244.655507,42.8914601 243.905928,42.8914601 L236.292003,42.8914601 C235.599457,42.8384573 235.020978,42.3247383 234.94765,41.6642424 L234.94765,20.479449 C234.94765,16.2147658 235.436506,9.97267218 230.19353,9.97267218 C228.344026,9.97267218 226.649327,11.2121212 225.801977,13.0916804 C224.734642,15.4768044 224.596133,17.849697 224.596133,20.479449 L224.596133,41.4807713 C224.596133,42.2635813 223.923957,42.8914601 223.113272,42.8914601 L223.10105,42.8914601 Z M191.122156,0.371019284 C202.390277,0.371019284 208.48875,10.058292 208.48875,22.3712397 C208.48875,34.2683196 201.750691,43.7068871 191.122156,43.7068871 C180.057725,43.7068871 174.036654,34.0196143 174.036654,21.9553719 C174.036654,9.80958678 180.135127,0.371019284 191.122156,0.371019284 L191.122156,0.371019284 Z M191.187337,8.33774105 C185.589941,8.33774105 185.239594,15.9660606 185.239594,20.7240771 C185.239594,25.4902479 185.166266,35.6667769 191.122156,35.6667769 C197.008792,35.6667769 197.28581,27.4595041 197.28581,22.4568595 C197.28581,19.1625344 197.147301,15.2321763 196.153295,12.1090909 C195.301871,9.39371901 193.603098,8.33774105 191.187337,8.33774105 L191.187337,8.33774105 Z M50.7757978,42.8914601 L43.1822414,42.8914601 C42.4571056,42.8384573 41.8786266,42.2961983 41.8256672,41.5990083 L41.8256672,2.59713499 C41.8256672,1.81432507 42.4774746,1.19460055 43.2881601,1.19460055 L50.3684182,1.19460055 C51.1057753,1.2353719 51.692402,1.79393939 51.7453613,2.49928375 L51.7453613,7.59977961 L51.8838704,7.59977961 C53.733374,2.67052342 57.2042485,0.371019284 61.8809667,0.371019284 C66.635087,0.371019284 69.6048846,2.67052342 71.7395539,7.59977961 C73.576836,2.67052342 77.7524773,0.371019284 82.2295795,0.371019284 C85.4112144,0.371019284 88.8943103,1.68793388 91.0167582,4.63570248 C93.4202981,7.91779614 92.9314425,12.6880441 92.9314425,16.8671074 L92.9314425,41.4807713 C92.9314425,42.2635813 92.2796351,42.8914601 91.4648758,42.8914601 L83.8835408,42.8914601 C83.1258147,42.8384573 82.5147452,42.2309642 82.5147452,41.4807713 L82.5147452,20.809697 C82.5147452,19.1625344 82.6654757,15.0609366 82.3029078,13.4993939 C81.7366501,10.8777961 80.037877,10.1439118 77.838027,10.1439118 C76.0007449,10.1439118 74.077913,11.3711295 73.2998179,13.3363085 C72.5217228,15.3055647 72.5950511,18.5958127 72.5950511,20.809697 L72.5950511,41.4807713 C72.5950511,42.2635813 71.9432437,42.8914601 71.1325582,42.8914601 L63.5512232,42.8914601 C62.7812757,42.8384573 62.1824276,42.2309642 62.1824276,41.4807713 L62.1824276,20.809697 C62.1824276,16.4593939 62.895342,10.058292 57.5016356,10.058292 C52.0468223,10.058292 52.2586597,16.3003857 52.2586597,20.809697 L52.2586597,41.4807713 C52.2586597,42.2635813 51.6068523,42.8914601 50.7961668,42.8914601 L50.7757978,42.8914601 Z M141.825146,8.08088154 L141.825146,2.49928375 C141.825146,1.6553168 142.464732,1.08859504 143.23468,1.08859504 L168.19483,1.08859504 C168.993294,1.08859504 169.636954,1.66754821 169.636954,2.49928375 L169.636954,7.27768595 C169.636954,8.08088154 168.952556,9.12870523 167.75486,10.784022 L154.820557,29.2656749 C159.627636,29.147438 164.699513,29.8650138 169.058475,32.3235262 C170.04026,32.8780165 170.309131,33.6893664 170.382459,34.492562 L170.382459,40.4451791 C170.382459,41.2565289 169.486224,42.2105785 168.545177,41.7172452 C160.866071,37.6890358 150.665285,37.2487052 142.175493,41.7620937 C141.311848,42.2309642 140.403391,41.289146 140.403391,40.4777961 L140.403391,34.8228099 C140.403391,33.9136088 140.403391,32.3642975 141.324069,30.9862259 L156.307492,9.47933884 L143.26727,9.47933884 C142.464732,9.47933884 141.825146,8.91261708 141.825146,8.08088154 L141.825146,8.08088154 Z M158.144775,51.0824242 C156.327861,48.750303 146.094485,49.9815978 141.503316,50.5238567 C140.106004,50.6950964 139.890093,49.4760331 141.15297,48.599449 C149.300563,42.8629201 162.670762,44.5182369 164.231026,46.4426446 C165.79129,48.3752066 163.823647,61.7930579 156.168983,68.1941598 C154.991656,69.1767493 153.871362,68.654876 154.392808,67.3501928 C156.116024,63.0528926 159.969835,53.4226997 158.144775,51.0824242 L158.144775,51.0824242 Z M152.217401,57.8667769 C154.576129,56.1136088 152.5596,53.5083196 150.143839,54.5316804 C134.166409,61.3201102 116.791668,64.5899725 100.993486,64.5899725 C77.5732302,64.5899725 54.8984797,58.1684848 36.559878,47.4904683 C34.9580613,46.5486501 33.7611799,48.1958127 35.0973851,49.4026446 C52.0875602,64.7612121 74.5504733,74 99.4984022,74 C117.292745,74 137.959114,68.3857851 152.217401,57.8667769 L152.217401,57.8667769 Z" id="Shape"></path>
                    </g>
                </g>
            </g>
        </g>
    </g>
</svg>