<?xml version="1.0" encoding="UTF-8"?>
<svg width="281px" height="76px" viewBox="0 0 281 76" version="1.1" xmlns="http://www.w3.org/2000/svg" xmlns:xlink="http://www.w3.org/1999/xlink">
    <!-- Generator: Sketch 47.1 (45422) - http://www.bohemiancoding.com/sketch -->
    <title>dropbox</title>
    <desc>Created with Sketch.</desc>
    <defs></defs>
    <g id="Page-1" stroke="none" stroke-width="1" fill="none" fill-rule="evenodd">
        <g id="My-Design" transform="translate(-892.000000, -2505.000000)" fill="#CECECE">
            <g id="testimonial.2" transform="translate(0.000000, 2121.000000)">
                <g id="logos" transform="translate(150.000000, 384.000000)">
                    <g id="dropbox" transform="translate(742.000000, 0.000000)">
                        <path d="M254.930239,26.7398701 L262.992774,42.0315496 L253.685289,58.0167028 L261.332841,58.0167028 L266.609058,48.6136715 L271.292443,58.0167028 L280.777778,58.0167028 L271.351726,40.5035571 L279.532828,26.7398701 L271.944559,26.7398701 L267.854009,33.9684504 L264.474858,26.7398701 L254.930239,26.7398701 L254.930239,26.7398701 Z M242.480737,32.1348593 C245.207771,32.1348593 246.156304,34.2916796 246.156304,42.3253944 C246.156304,50.6705846 245.029921,52.5511908 242.480737,52.5511908 C239.87227,52.5511908 238.745886,50.6118157 238.745886,42.3253944 C238.745886,34.6736777 239.635136,32.1348593 242.421454,32.1348593 L242.480737,32.1348593 L242.480737,32.1348593 Z M242.480737,26.0522734 C233.054685,26.0522734 229.616251,32.5815032 229.616251,42.3253944 C229.616251,52.374884 233.351102,58.6631612 242.421454,58.6631612 C251.669655,58.6631612 255.345223,52.3161151 255.345223,42.3253944 C255.345223,32.5815032 251.788222,26.0522734 242.480737,26.0522734 L242.480737,26.0522734 Z M210.586298,37.8001856 C210.586298,36.1899165 210.586298,34.5972781 211.653398,33.3983916 C212.246231,32.5697495 213.254048,32.0702134 214.439715,32.0702134 C216.988899,32.0702134 218.293132,34.1623879 218.293132,42.3841633 C218.293132,50.4355088 217.048182,52.6099598 214.261865,52.6099598 C210.586298,52.6099598 210.586298,48.5549026 210.586298,44.9699969 L210.586298,37.8001856 L210.586298,37.8001856 Z M201.930929,15.7383235 L201.930929,58.0167028 L207.147864,58.0167028 C207.79998,55.7834828 208.15568,55.1370244 208.807797,53.9616455 C209.578481,55.4896381 211.060564,58.6631612 216.040365,58.6631612 C217.759582,58.6631612 219.478799,58.3105475 221.198016,57.4290133 C226.948501,54.4317971 227.363484,45.0287659 227.363484,42.1490875 C227.363484,34.5972781 224.873584,26.3049799 217.226032,26.3049799 C213.372615,26.3049799 211.653398,28.3325085 210.586298,29.6606867 L210.586298,15.7383235 L201.930929,15.7383235 L201.930929,15.7383235 Z M182.604559,39.2694092 C182.604559,36.495515 182.604559,32.0702134 186.635826,32.0702134 C189.955694,32.0702134 190.192827,36.4308692 190.192827,41.9727807 C190.192827,48.5549026 189.89641,52.374884 186.280126,52.374884 C182.604559,52.374884 182.604559,49.7302815 182.604559,45.2638416 L182.604559,39.2694092 L182.604559,39.2694092 Z M173.94919,26.7398701 L173.94919,68.536344 L182.604559,68.536344 L182.604559,55.7247139 C183.612376,56.665017 185.153743,58.3693164 188.65146,58.3693164 C198.729629,58.3693164 199.263179,46.3804516 199.263179,41.9727807 C199.263179,36.6953294 198.314645,31.8116301 195.172628,28.7027529 C193.631261,27.1865141 191.378494,26.2932261 189.244293,26.2932261 C184.916609,26.2932261 183.197392,29.4021033 182.130292,31.4296319 L182.130292,26.7398701 L173.94919,26.7398701 L173.94919,26.7398701 Z M158.535521,32.1348593 C161.262555,32.1348593 162.211088,34.2916796 162.211088,42.3253944 C162.211088,50.6705846 161.084705,52.5511908 158.535521,52.5511908 C155.927054,52.5511908 154.80067,50.6118157 154.80067,42.3253944 C154.80067,34.6736777 155.68992,32.1348593 158.476237,32.1348593 L158.535521,32.1348593 L158.535521,32.1348593 Z M158.535521,26.0522734 C149.168752,26.0522734 145.730318,32.5815032 145.730318,42.3253944 C145.730318,52.374884 149.405886,58.6631612 158.476237,58.6631612 C167.724439,58.6631612 171.400007,52.3161151 171.400007,42.3253944 C171.400007,32.5815032 167.902289,26.0522734 158.535521,26.0522734 L158.535521,26.0522734 Z M127.767465,26.7398701 L127.767465,58.0167028 L136.5414,58.0167028 L136.5414,44.4998453 C136.5414,42.0903186 136.5414,34.8499845 143.003284,34.8499845 C143.358984,34.8499845 143.714685,34.8499845 144.485368,34.9792762 L144.485368,26.4871636 C144.070385,26.3578719 143.596118,26.2932261 142.944001,26.2932261 C137.845633,26.2932261 136.304266,31.6235694 135.533583,34.2858027 L135.533583,26.7398701 L127.767465,26.7398701 L127.767465,26.7398701 Z M104.054127,23.0374265 L105.71406,23.0374265 C109.448911,23.0374265 114.606562,23.4429323 114.606562,36.4661305 C114.606562,50.259202 109.389628,50.7293535 105.71406,50.7293535 L104.054127,50.7293535 L104.054127,23.0374265 L104.054127,23.0374265 Z M94.7466417,58.0167028 L105.951194,58.0167028 C109.211778,58.0167028 113.776595,58.0167028 117.570729,55.0782555 C122.135547,51.6108877 124.506881,44.4998453 124.506881,36.5954222 C124.506881,15.8147232 111.286695,15.7383235 104.82481,15.7383235 L94.7466417,15.7383235 L94.7466417,58.0167028 L94.7466417,58.0167028 Z M41.2137813,46.968141 L24.2172464,61.013919 L16.9372516,56.3124033 L16.9372516,61.5428395 L41.2137813,76 L65.5199527,61.5428395 L65.5199527,56.3124033 L58.2281013,61.013919 L41.2137813,46.968141 L41.2137813,46.968141 Z M82.3564226,15.7383235 L58.1688179,0 L41.154498,14.1163006 L65.6385194,29.0436127 L82.3564226,15.7383235 L82.3564226,15.7383235 Z M41.154498,43.9709248 L58.1688179,58.0167028 L82.3564226,42.3253944 L65.6385194,29.0142283 L41.154498,43.9709248 L41.154498,43.9709248 Z M0,42.3253944 L24.2172464,58.0167028 L41.154498,43.9709248 L16.7712583,29.0142283 L4.212335e-15,42.3253944 L0,42.3253944 Z M24.2172464,0 L0,15.656047 L16.7712583,28.9965976 L41.154498,14.0340241 L24.2172464,0 L24.2172464,0 Z" id="Shape"></path>
                    </g>
                </g>
            </g>
        </g>
    </g>
</svg>