<?xml version="1.0" encoding="UTF-8"?>
<svg width="298px" height="58px" viewBox="0 0 298 58" version="1.1" xmlns="http://www.w3.org/2000/svg" xmlns:xlink="http://www.w3.org/1999/xlink">
    <!-- Generator: Sketch 47.1 (45422) - http://www.bohemiancoding.com/sketch -->
    <title>facebook</title>
    <desc>Created with Sketch.</desc>
    <defs></defs>
    <g id="Page-1" stroke="none" stroke-width="1" fill="none" fill-rule="evenodd">
        <g id="My-Design" transform="translate(-396.000000, -2506.000000)" fill="#CECECE">
            <g id="testimonial.2" transform="translate(0.000000, 2121.000000)">
                <g id="logos" transform="translate(150.000000, 384.000000)">
                    <g id="facebook" transform="translate(246.000000, 1.000000)">
                        <path d="M28,0.00378712134 L28,9.15430071 L23.0136986,9.15430071 C23.0136986,9.15430071 18.4109589,8.50989834 18.4109589,12.8918344 L18.4109589,20.2380214 L28,20.2380214 L26.8493151,30.1618178 L18.4109589,30.1618178 L18.4109589,58 L7.41552511,58 L7.41552511,30.0329373 L3.55271368e-15,30.0329373 L3.55271368e-15,20.2380214 L7.79908676,20.2380214 L7.79908676,11.8607906 C7.79908676,11.8607906 6.77625571,7.22109361 10.8675799,3.48355989 C14.9589041,-0.253973825 20.3287671,0.00378712134 20.3287671,0.00378712134 L28,0.00378712134" id="Shape"></path>
                        <path d="M55.161512,19.0322581 L55.161512,24.0645161 C52.2886598,20.3225806 48.2405498,18 43.8006873,18 C35.0515464,18 28,25.6129032 28,38 C28,50.3870968 35.0515464,58 43.8006873,58 C48.2405498,58 52.419244,55.6774194 55.2920962,51.8064516 L55.161512,56.7096774 L66,56.7096774 L66,19.0322581 L55.161512,19.0322581 M54.5085911,41.7419355 C54.5085911,45.483871 51.2439863,49.0967742 47.1958763,49.0967742 C43.1477663,49.0967742 39.8831615,45.483871 39.8831615,41.7419355 L39.8831615,34.516129 C39.8831615,30.7741935 43.1477663,27.1612903 47.1958763,27.1612903 C51.2439863,27.1612903 54.5085911,30.7741935 54.5085911,34.516129 L54.5085911,41.7419355" id="Shape"></path>
                        <path d="M151.20678,56.9802198 L151.20678,52.0087912 C154.040678,55.7054945 158.033898,58 162.413559,58 C171.044068,58 178,50.4791209 178,38.2417582 C178,26.0043956 171.044068,18.4835165 162.413559,18.4835165 C158.033898,18.4835165 153.911864,20.778022 151.077966,24.6021978 L151.20678,0 L140,1.27472527 L140,56.8527473 L151.20678,56.9802198 M151.850847,34.5450549 C151.850847,30.8483516 155.071186,27.2791209 159.064407,27.2791209 C163.057627,27.2791209 166.277966,30.8483516 166.277966,34.5450549 L166.277966,41.6835165 C166.277966,45.3802198 163.057627,48.9494505 159.064407,48.9494505 C155.071186,48.9494505 151.850847,45.3802198 151.850847,41.6835165 L151.850847,34.5450549" id="Shape"></path>
                        <path d="M89.5871752,49.2321896 C89.5871752,49.2321896 81.0791353,49.7546171 81.0791353,38.3918206 L81.0791353,37.7387863 C81.0791353,26.5065967 89.5871752,26.8984172 89.5871752,26.8984172 C95.3015303,26.7678104 97.333301,28.8575201 97.333301,28.8575201 L100,20.6292881 C95.4285159,17.102903 81.587078,16.5804756 75.3647802,22.4577841 C70.0313821,27.5514515 70.0313821,35.7796834 70.0313821,38 C69.9043965,40.0897097 69.9043965,48.4485485 75.3647802,53.5422159 C81.587078,59.4195244 95.4285159,58.897097 100,55.3707119 L97.333301,47.1424799 C97.333301,47.2730868 95.3015303,49.3627965 89.5871752,49.2321896" id="Shape"></path>
                        <path d="M135.60638,41.9752007 C135.60638,41.9752007 140.118473,18.1308832 118.589341,18.0005863 C97.060208,17.8702895 100.154215,39.4995611 100.154215,39.4995611 C100.669883,52.6595396 106.600063,56.4381473 116.91342,57.7411155 C127.226777,59.0440837 134.961795,55.0048824 134.961795,55.0048824 L132.64129,47.3173702 C132.64129,47.3173702 124.390604,49.9233065 117.815839,49.2718224 C111.241074,48.7506351 111.756742,41.8449038 111.756742,41.8449038 L135.60638,41.8449038 L135.60638,41.9752007 Z M111.498908,34.2876885 C111.498908,34.2876885 110.98324,25.8183954 118.460424,25.8183954 C125.937608,25.8183954 125.42194,34.2876885 125.42194,34.2876885 L111.498908,34.2876885 L111.498908,34.2876885 Z" id="Shape"></path>
                        <path d="M201,18 C186.717241,18 182,26.627451 182,38 C182,50.1568627 188.158621,58 201,58 C211.482759,58 220,50.9411765 220,38 C220,26.8888889 214.496552,18 201,18 M208.337931,41.2679739 C208.337931,45.0588235 204.931034,48.7189542 200.868966,48.7189542 C196.675862,48.7189542 193.4,45.0588235 193.4,41.2679739 L193.4,33.9477124 C193.4,30.1568627 196.806897,26.496732 200.868966,26.496732 C205.062069,26.496732 208.337931,30.1568627 208.337931,33.9477124 L208.337931,41.2679739" id="Shape"></path>
                        <path d="M241,18 C226.717241,18 222,26.627451 222,38 C222,50.1568627 228.158621,58 241,58 C251.482759,58 260,50.9411765 260,38 C260,26.8888889 254.496552,18 241,18 M248.337931,41.2679739 C248.337931,45.0588235 244.931034,48.7189542 240.868966,48.7189542 C236.675862,48.7189542 233.4,45.0588235 233.4,41.2679739 L233.4,33.9477124 C233.4,30.1568627 236.806897,26.496732 240.868966,26.496732 C245.062069,26.496732 248.337931,30.1568627 248.337931,33.9477124 L248.337931,41.2679739" id="Shape"></path>
                        <polygon id="Shape" points="298 58 286.168498 38.96875 297.501832 19.9375 285.919414 19.9375 274.835165 37.0267857 274.835165 3.55271368e-15 264 1.16517857 264 58 274.835165 58 274.835165 38.7098214 286.791209 58"></polygon>
                    </g>
                </g>
            </g>
        </g>
    </g>
</svg>