<?xml version="1.0" encoding="UTF-8"?>
<svg width="228px" height="76px" viewBox="0 0 228 76" version="1.1" xmlns="http://www.w3.org/2000/svg" xmlns:xlink="http://www.w3.org/1999/xlink">
    <!-- Generator: Sketch 47.1 (45422) - http://www.bohemiancoding.com/sketch -->
    <title>google</title>
    <desc>Created with Sketch.</desc>
    <defs></defs>
    <g id="Page-1" stroke="none" stroke-width="1" fill="none" fill-rule="evenodd">
        <g id="My-Design" transform="translate(-663.000000, -2507.000000)" fill="#3B495B">
            <g id="testimonial.2" transform="translate(0.000000, 2121.000000)">
                <g id="logos" transform="translate(150.000000, 384.000000)">
                    <g id="google" transform="translate(513.000000, 2.000000)">
                        <path d="M29.2752469,58.9593188 C37.8604321,58.9593188 44.3298148,56.0892463 49.3941358,50.6966257 C54.6074074,45.3639231 56.2259259,37.8981394 56.2259259,31.8584043 C56.2259259,29.9829707 56.0851852,28.2633239 55.8037037,26.8192999 L29.2752469,26.8192999 L29.2752469,34.87228 L48.1333333,34.87228 C47.5703704,39.4020814 46.0867284,42.7095553 43.8442593,45.0104068 C41.0951235,47.8085777 36.8072222,50.9063387 29.2752469,50.9063387 C17.6658951,50.9063387 8.58635802,41.3434248 8.58635802,29.4796594 C8.58635802,17.615894 17.6658951,8.04698833 29.2752469,8.04698833 C35.5335185,8.04698833 40.115216,10.5695364 43.4871296,13.8051088 L49.0481481,8.12488174 C44.3298148,3.52917061 38.0715432,0 29.2752469,0 C13.3686111,0 0,13.2239041 0,29.4796594 C0,45.7294229 13.3686111,58.9593188 29.2752469,58.9593188 L29.2752469,58.9593188 Z M77.6947531,58.9593188 C87.962963,58.9593188 96.337037,50.9063387 96.337037,39.9713024 C96.337037,28.9763482 87.962963,20.9952696 77.6947531,20.9952696 C67.4089506,20.9952696 59.0348765,28.9763482 59.0348765,39.9713024 C59.0348765,50.9063387 67.4089506,58.9593188 77.6947531,58.9593188 L77.6947531,58.9593188 Z M77.6947531,51.4815516 C72.0592593,51.4815516 67.1978395,46.7360454 67.1978395,39.9713024 C67.1978395,33.1466414 72.0592593,28.4790287 77.6947531,28.4790287 C83.3185185,28.4790287 88.1740741,33.1466414 88.1740741,39.9713024 C88.1740741,46.7360454 83.3185185,51.4815516 77.6947531,51.4815516 L77.6947531,51.4815516 Z M118.362963,58.9593188 C128.637037,58.9593188 137.011111,50.9063387 137.011111,39.9713024 C137.011111,28.9763482 128.637037,20.9952696 118.362963,20.9952696 C108.083025,20.9952696 99.7089506,28.9763482 99.7089506,39.9713024 C99.7089506,50.9063387 108.083025,58.9593188 118.362963,58.9593188 L118.362963,58.9593188 Z M118.362963,51.4815516 C112.733333,51.4815516 107.871914,46.7360454 107.871914,39.9713024 C107.871914,33.1466414 112.733333,28.4790287 118.362963,28.4790287 C123.992593,28.4790287 128.848148,33.1466414 128.848148,39.9713024 C128.848148,46.7360454 123.992593,51.4815516 118.362963,51.4815516 L118.362963,51.4815516 Z M158.333333,76 C167.89784,76 176.00216,70.2538631 176.00216,56.2270577 L176.00216,22.1456954 L168.255556,22.1456954 L168.255556,25.2374645 L167.974074,25.2374645 C166.13858,23.0085147 162.620062,20.9952696 158.198457,20.9952696 C148.903704,20.9952696 140.394753,29.3358562 140.394753,40.0491958 C140.394753,50.6966257 148.903704,58.9593188 158.198457,58.9593188 C162.620062,58.9593188 166.13858,56.9460738 167.974074,54.6452223 L168.255556,54.6452223 L168.255556,57.3774834 C168.255556,64.6455377 164.455556,68.5222327 158.333333,68.5222327 C153.342901,68.5222327 150.240741,64.8612425 148.96821,61.7574898 L141.866667,64.7833491 C143.913272,69.8224535 149.325926,76 158.333333,76 L158.333333,76 Z M158.890432,51.4815516 C153.266667,51.4815516 148.545988,46.6701356 148.545988,40.0491958 C148.545988,33.3623463 153.266667,28.4790287 158.890432,28.4790287 C164.455556,28.4790287 168.818519,33.3623463 168.818519,40.0491958 C168.818519,46.6701356 164.455556,51.4815516 158.890432,51.4815516 L158.890432,51.4815516 Z M189.788889,2.01324503 L181.625926,2.01324503 L181.625926,57.8088931 L189.788889,57.8088931 L189.788889,2.01324503 Z M212.166667,58.9593188 C220.675617,58.9593188 225.607407,53.6445916 227.648148,50.5468307 L221.308951,46.238726 C219.203704,49.3904131 216.318519,51.4815516 212.166667,51.4815516 C208.014815,51.4815516 205.053395,49.5402081 203.159259,45.7294229 L228,35.2257963 L227.155556,33.0747398 C225.607407,28.8325449 220.886728,20.9952696 211.251852,20.9952696 C201.681481,20.9952696 193.72963,28.6947335 193.72963,39.9713024 C193.72963,50.6187323 201.611111,58.9593188 212.166667,58.9593188 L212.166667,58.9593188 Z M201.822222,39.4020814 C201.611111,32.0741091 207.381481,28.3292337 211.533333,28.3292337 C214.77037,28.3292337 217.514815,29.9829707 218.435494,32.3557237 L201.822222,39.4020814 Z" id="Shape"></path>
                    </g>
                </g>
            </g>
        </g>
    </g>
</svg>