<?xml version="1.0" encoding="UTF-8"?>
<svg width="288px" height="52px" viewBox="0 0 288 52" version="1.1" xmlns="http://www.w3.org/2000/svg" xmlns:xlink="http://www.w3.org/1999/xlink">
    <!-- Generator: Sketch 47.1 (45422) - http://www.bohemiancoding.com/sketch -->
    <title>mashable</title>
    <desc>Created with Sketch.</desc>
    <defs></defs>
    <g id="Page-1" stroke="none" stroke-width="1" fill="none" fill-rule="evenodd">
        <g id="My-Design" transform="translate(-1146.000000, -2509.000000)" fill="#CECECE">
            <g id="testimonial.2" transform="translate(0.000000, 2121.000000)">
                <g id="logos" transform="translate(150.000000, 384.000000)">
                    <g id="mashable" transform="translate(996.000000, 4.000000)">
                        <polygon id="path13736" transform="translate(28.000000, 25.000000) scale(1, -1) translate(-28.000000, -25.000000) " points="43.2745665 9.45021839e-13 43.2745665 33.0633586 30.8526011 9.45021839e-13 25.2283237 9.45021839e-13 12.7254336 33.0633586 12.7254336 9.45021839e-13 0 9.45021839e-13 0 50 17.6820809 50 28.0404625 22.4113184 38.317919 50 56 50 56 9.45021839e-13 43.2745665 9.45021839e-13"></polygon>
                        <path d="M78.8612162,14.9020771 L78.8612162,18.5001349 C76.694792,15.8041543 72.490544,14 68.0093104,14 C62.6575502,14 56,17.823577 56,25.9217696 C56,34.6862693 62.6575502,37.61802 68.0093104,37.61802 C72.6389293,37.61802 76.7640384,36.039385 78.8612162,33.3434044 L78.8612162,36.9414621 C78.8612162,40.0884813 76.2595286,42.2616671 71.7684027,42.2616671 C68.2961885,42.2616671 64.8239744,40.8367953 62.0046552,38.366334 L57.8795461,46.3825195 C62.3706721,50.3598597 68.3753273,52 73.7270875,52 C82.1157987,52 90,48.7812247 90,37.5360129 L90,14.9020771 L78.8612162,14.9020771 L78.8612162,14.9020771 L78.8612162,14.9020771 Z M78.8612162,24.1996223 L78.8612162,27.4183976 C77.7038115,29.1405449 75.102124,29.9708659 72.6389293,29.9708659 C69.7503637,29.9708659 67.0695374,28.6177502 67.0695374,25.7680065 C67.0695374,22.9182627 69.7503637,21.5753979 72.6389293,21.5753979 C75.102124,21.5753979 77.7038115,22.4672241 78.8612162,24.1996223 L78.8612162,24.1996223 L78.8612162,24.1996223 Z" id="path13748" transform="translate(73.000000, 33.000000) scale(1, -1) translate(-73.000000, -33.000000) "></path>
                        <path d="M92,19.6174804 L96.5924563,27.8591853 C99.1732597,25.4604802 104.697945,22.9900189 108.789942,22.9900189 C112.08709,22.9900189 113.451089,23.9638521 113.451089,25.5424871 C113.451089,30.0323712 93.2953082,25.388724 93.2953082,40.0782303 C93.2953082,46.4542756 98.6041092,52 108.142288,52 C114.030052,52 118.907084,50.0523333 122.636001,47.2025897 L118.406624,39.0326409 C116.32628,41.1340706 112.381478,42.9997302 108.220791,42.9997302 C105.630175,42.9997302 103.91291,41.9541407 103.91291,40.5292689 C103.91291,36.5621796 124,40.6830321 124,25.8397625 C124,18.9409226 118.190739,14 108.289482,14 C102.048451,14 95.6602269,16.1731859 92,19.6174804" id="path13752" transform="translate(108.000000, 33.000000) scale(1, -1) translate(-108.000000, -33.000000) "></path>
                        <path d="M152.474268,-1.77635684e-14 L152.474268,21.0682796 C152.474268,25.4869797 150.150697,26.9120361 146.48621,26.9120361 C143.118567,26.9120361 140.876884,25.0358827 139.525732,23.3852779 L139.525732,-1.77635684e-14 L128,-1.77635684e-14 L128,50 L139.525732,50 L139.525732,31.7818331 C141.695763,34.3346318 145.964174,37.1027271 152.023884,37.1027271 C160.253625,37.1027271 164,32.4584785 164,25.7842936 L164,-1.77635684e-14 L152.474268,-1.77635684e-14 L152.474268,-1.77635684e-14 L152.474268,-1.77635684e-14 Z" id="path13756" transform="translate(146.000000, 25.000000) scale(1, -1) translate(-146.000000, -25.000000) "></path>
                        <path d="M186.861216,14.9020771 L186.861216,18.5001349 C184.694792,15.8041543 180.490544,14 176.00931,14 C170.65755,14 164,17.823577 164,25.9217696 C164,34.6862693 170.65755,37.61802 176.00931,37.61802 C180.638929,37.61802 184.764038,36.039385 186.861216,33.3434044 L186.861216,36.9414621 C186.861216,40.0884813 184.259529,42.2616671 179.768403,42.2616671 C176.296189,42.2616671 172.823974,40.8367953 170.004655,38.366334 L165.879546,46.3825195 C170.370672,50.3598597 176.375327,52 181.727088,52 C190.115799,52 198,48.7812247 198,37.5360129 L198,14.9020771 L186.861216,14.9020771 L186.861216,14.9020771 L186.861216,14.9020771 Z M186.861216,24.1996223 L186.861216,27.4183976 C185.703812,29.1405449 183.102124,29.9708659 180.638929,29.9708659 C177.750364,29.9708659 175.069537,28.6177502 175.069537,25.7680065 C175.069537,22.9182627 177.750364,21.5753979 180.638929,21.5753979 C183.102124,21.5753979 185.703812,22.4672241 186.861216,24.1996223 L186.861216,24.1996223 L186.861216,24.1996223 Z" id="path13760" transform="translate(181.000000, 33.000000) scale(1, -1) translate(-181.000000, -33.000000) "></path>
                        <path d="M202,0.886203417 L202,50 L213.47439,50 L213.47439,32.2557905 C216.307321,35.7905337 220.179673,37.3313192 224.133548,37.3313192 C233.152052,37.3313192 240,30.3423968 240,18.7009063 C240,6.6263847 232.999195,8.91731133e-13 224.133548,8.91731133e-13 C220.10834,8.91731133e-13 216.460177,1.62134945 213.47439,5.00503528 L213.47439,0.886203417 L202,0.886203417 L202,0.886203417 L202,0.886203417 Z M220.332529,10.020141 C224.877447,10.020141 228.301421,13.3333333 228.301421,18.7009063 C228.301421,24.0080564 224.877447,27.3212487 220.332529,27.3212487 C217.876643,27.3212487 214.890855,25.9919436 213.47439,24.0785499 L213.47439,13.182276 C214.890855,11.2688822 217.876643,10.020141 220.332529,10.020141 L220.332529,10.020141 L220.332529,10.020141 Z" id="path13764" transform="translate(221.000000, 25.000000) scale(1, -1) translate(-221.000000, -25.000000) "></path>
                        <polygon id="path13766" points="242 0 254 0 254 50 242 50 242 0"></polygon>
                        <path d="M252,33.0358781 C252,43.5327759 259.517129,52 270.323002,52 C280.561175,52 288,44.1273267 288,31.8365255 L288,29.212301 L263.383361,29.212301 C264.166395,25.9935258 267.034258,23.2872943 272.035889,23.2872943 C274.473083,23.2872943 278.486134,24.4148907 280.482871,26.3625574 L285.278956,18.7974103 C281.843393,15.5683841 276.117455,14 270.822186,14 C260.163132,14 252,21.2678716 252,33.0358781 M270.323002,42.7024548 C265.526917,42.7024548 263.66721,39.7091989 263.236542,37.0849744 L277.477977,37.0849744 C277.194127,39.6374426 275.402936,42.7024548 270.323002,42.7024548" id="path13778" transform="translate(270.000000, 33.000000) scale(1, -1) translate(-270.000000, -33.000000) "></path>
                    </g>
                </g>
            </g>
        </g>
    </g>
</svg>