<?xml version="1.0" encoding="UTF-8"?>
<svg width="57px" height="45px" viewBox="0 0 57 45" version="1.1" xmlns="http://www.w3.org/2000/svg" xmlns:xlink="http://www.w3.org/1999/xlink">
    <!-- Generator: Sketch 47.1 (45422) - http://www.bohemiancoding.com/sketch -->
    <title>picture-small copy 7</title>
    <desc>Created with Sketch.</desc>
    <defs></defs>
    <g id="Page-1" stroke="none" stroke-width="1" fill="none" fill-rule="evenodd">
        <g id="My-Design" transform="translate(-350.000000, -1635.000000)" fill="#FFFFFF">
            <g id="feature.2" transform="translate(0.000000, 1517.000000)">
                <g id="left" transform="translate(150.000000, 118.000000)">
                    <g id="pic.small-white" transform="translate(200.000000, 0.000000)">
                        <path d="M55.1598815,0 L1.84011846,0 C0.82388237,0 0,0.818997999 0,1.82975424 L0,43.1702458 C0,44.181002 0.82388237,45 1.84011846,45 L55.1598815,45 C56.1761176,45 57,44.181002 57,43.1702458 L57,1.82975424 C57,0.819241967 56.1761176,0 55.1598815,0 L55.1598815,0 Z M54,4 L54,39 L39.173387,23.3947907 C38.8232026,23.0261791 38.334625,22.8170465 37.8235585,22.8170465 L37.8233114,22.8170465 C37.3122448,22.8170465 36.8239144,23.0261791 36.4734829,23.3943015 L30.1419915,30.0540146 L21.6532952,18.9758545 C21.3028638,18.5184533 20.7564575,18.2498829 20.1764415,18.2498829 L20.1749587,18.2498829 C19.5944485,18.2503721 19.0477951,18.5199209 18.6978579,18.9783005 L4,38.2255977 L4,4 L54,4 L54,4 Z M51,42 L6,42 L20.0523373,23 L28.2731607,34.0770431 C28.5983661,34.5152421 29.0956818,34.7845389 29.6329778,34.8136858 C30.1695424,34.8410888 30.6929428,34.62884 31.0615415,34.2282579 L37.4569237,27.2830901 L51,42 Z M38.9996893,11 C40.6542404,11 42,12.3460702 42,14.0003107 C42,15.6542404 40.6542404,17 38.9996893,17 C37.3454489,17 36,15.6542404 36,14.0003107 C36,12.3460702 37.3457596,11 38.9996893,11 Z" id="Combined-Shape"></path>
                    </g>
                </g>
            </g>
        </g>
    </g>
</svg>